<svg width="28" height="28" viewBox="0 0 46 46" fill="#828282" xmlns="http://www.w3.org/2000/svg">
<path fill-rule="evenodd" clip-rule="evenodd" d="M13.8839 12.1161C14.3721 11.6279 15.1636 11.6279 15.6517 12.1161L33.6829 30.1473C34.1711 30.6354 34.1711 31.4269 33.6829 31.9151C33.1948 32.4032 32.4033 32.4032 31.9152 31.9151L13.8839 13.8838C13.3958 13.3957 13.3958 12.6042 13.8839 12.1161Z"/>
<path fill-rule="evenodd" clip-rule="evenodd" d="M33.1161 12.1161C32.6279 11.6279 31.8364 11.6279 31.3483 12.1161L13.3171 30.1473C12.8289 30.6354 12.8289 31.4269 13.3171 31.9151C13.8052 32.4032 14.5967 32.4032 15.0848 31.9151L33.1161 13.8838C33.6042 13.3957 33.6042 12.6042 33.1161 12.1161Z"/>
</svg>
